# xmcd
#
# Track frame offsets:
#	150
#	23969
#	48604
#	64204
#	79921
#	99068
#	120536
#	143551
#	171069
#	194620
#	213024
#	238467
#
# Disc length: 3615 seconds
#
# Revision: 1
# Processed by: cddbd v1.5.1PL2 Copyright (c) Steve Scherf et al.
# Submitted via: audiograbber 1.83.01
#
DISCID=a50e1d0c
DTITLE=Various Artist - Cleveland Blues Guitar Summit Vol. 1
DYEAR=2006
DGENRE=Blues
TTITLE0=I'm A King Bee (Frankie Starr - Alan Greene)
TTITLE1=Job Close To Home (Travis "Moonchild" Haddix)
TTITLE2=Cleveland, Ohio Blues (Bob Frank of Blue Lunch)
TTITLE3=Talk To Me, Talk To Me (Mr. Downchild)
TTITLE4=Going Down (Butch Armstrong)
TTITLE5=San Ho Zay (Alan Greene - Frankie Starr)
TTITLE6=Look On Yonder's Wall (Austin "Walkin' Cane" Charaghat)
TTITLE7=Talk To Your Daughter (Frank "Silk" Smith)
TTITLE8=Open Book (Travis "Moonchild" Haddix)
TTITLE9=T-Bone Shuffle (Bob Frank - Alan Greene)
TTITLE10=That's Alright (Frankie Starr - Alan Greene)
TTITLE11=Every Day I Have The Blues (Travis, Alan, Frankie, Frank, Bob)
EXTD=
EXTT0=
EXTT1=
EXTT2=
EXTT3=
EXTT4=
EXTT5=
EXTT6=
EXTT7=
EXTT8=
EXTT9=
EXTT10=
EXTT11=
PLAYORDER=
